<svg width="400" height="400" viewBox="0 0 400 400" fill="none" xmlns="http://www.w3.org/2000/svg">
<rect width="400" height="400" fill="#F7E018"/>
<path d="M139.424 273.616C146.312 270.5 150.166 265.006 150.166 256.314C150.166 242.702 140.818 235.24 125.238 235.24H109.822V291H121.302V277.142H125.238C126.304 277.142 127.452 277.06 128.518 276.896L137.702 291H150.986L139.424 273.616ZM121.302 267.138V245.326H124.91C134.094 245.326 138.358 248.442 138.358 256.314C138.358 264.186 134.258 267.138 124.91 267.138H121.302ZM160.191 291H198.239V280.914H171.671V272.878H194.057V263.038H171.671V245.326H197.091V235.24H160.191V291ZM204.779 291H215.849L218.473 284.686H241.105L243.729 291H255.783L230.281 234.748H229.297L204.779 291ZM222.327 275.092L226.345 265.416C227.985 261.48 229.625 255.412 229.625 255.412C229.625 255.412 231.347 261.48 232.987 265.416L237.005 275.092H222.327ZM292.934 273.616C299.822 270.5 303.676 265.006 303.676 256.314C303.676 242.702 294.328 235.24 278.748 235.24H263.332V291H274.812V277.142H278.748C279.814 277.142 280.962 277.06 282.028 276.896L291.212 291H304.496L292.934 273.616ZM274.812 267.138V245.326H278.42C287.604 245.326 291.868 248.442 291.868 256.314C291.868 264.186 287.768 267.138 278.42 267.138H274.812ZM138.194 370.738C148.362 370.738 156.398 366.884 159.596 364.26V340.152H135.652V350.238H149.1V358.438C146.23 359.832 141.802 360.488 138.194 360.488C126.468 360.488 119.744 352.534 119.744 342.12C119.744 331.706 126.304 323.916 136.39 323.916C142.868 323.916 146.066 326.13 148.854 329L156.644 321.292C152.052 316.044 145.492 313.584 136.39 313.584C119.58 313.584 107.936 325.638 107.936 342.12C107.936 358.602 119.99 370.738 138.194 370.738ZM192.427 370.738C205.137 370.738 214.895 363.932 214.895 349.828V314.24H203.415V349.172C203.415 357.29 199.971 360.406 192.427 360.406C184.801 360.406 181.275 357.29 181.275 349.172V314.24H169.795V349.828C169.795 363.932 179.553 370.738 192.427 370.738ZM218.872 370H229.942L232.566 363.686H255.198L257.822 370H269.876L244.374 313.748H243.39L218.872 370ZM236.42 354.092L240.438 344.416C242.078 340.48 243.718 334.412 243.718 334.412C243.718 334.412 245.44 340.48 247.08 344.416L251.098 354.092H236.42ZM307.028 352.616C313.916 349.5 317.77 344.006 317.77 335.314C317.77 321.702 308.422 314.24 292.842 314.24H277.426V370H288.906V356.142H292.842C293.908 356.142 295.056 356.06 296.122 355.896L305.306 370H318.59L307.028 352.616ZM288.906 346.138V324.326H292.514C301.698 324.326 305.962 327.442 305.962 335.314C305.962 343.186 301.862 346.138 292.514 346.138H288.906ZM327.795 370H344.933C362.153 370 374.289 358.602 374.289 342.12C374.289 325.638 362.071 314.24 344.933 314.24H327.795V370ZM339.275 359.914V324.326H344.359C356.741 324.326 362.399 331.706 362.399 342.12C362.399 352.534 356.741 359.914 344.359 359.914H339.275Z" fill="black"/>
</svg>
