<svg width="400" height="400" viewBox="0 0 400 400" fill="none" xmlns="http://www.w3.org/2000/svg">
<rect width="400" height="400" fill="#F7E018"/>
<path d="M131.142 291.492H132.29L156.726 235.24H145.574L136.226 256.724C134.094 261.562 131.962 269.352 131.962 269.352C131.962 269.352 129.748 261.48 127.616 256.724L118.022 235.24H105.722L131.142 291.492ZM149.525 291H160.595L163.219 284.686H185.851L188.475 291H200.529L175.027 234.748H174.043L149.525 291ZM167.073 275.092L171.091 265.416C172.731 261.48 174.371 255.412 174.371 255.412C174.371 255.412 176.093 261.48 177.733 265.416L181.751 275.092H167.073ZM252.768 291.492H253.916V235.24H243.174V258.61C243.174 262.464 243.912 268.778 243.912 268.778C243.912 268.778 240.058 263.694 237.352 261.152L209.226 234.748H208.078V291H218.82V267.63C218.82 263.612 218 257.462 218 257.462C218 257.462 221.854 262.464 224.642 265.088L252.768 291.492ZM138.194 370.738C148.362 370.738 156.398 366.884 159.596 364.26V340.152H135.652V350.238H149.1V358.438C146.23 359.832 141.802 360.488 138.194 360.488C126.468 360.488 119.744 352.534 119.744 342.12C119.744 331.706 126.304 323.916 136.39 323.916C142.868 323.916 146.066 326.13 148.854 329L156.644 321.292C152.052 316.044 145.492 313.584 136.39 313.584C119.58 313.584 107.936 325.638 107.936 342.12C107.936 358.602 119.99 370.738 138.194 370.738ZM192.427 370.738C205.137 370.738 214.895 363.932 214.895 349.828V314.24H203.415V349.172C203.415 357.29 199.971 360.406 192.427 360.406C184.801 360.406 181.275 357.29 181.275 349.172V314.24H169.795V349.828C169.795 363.932 179.553 370.738 192.427 370.738ZM218.872 370H229.942L232.566 363.686H255.198L257.822 370H269.876L244.374 313.748H243.39L218.872 370ZM236.42 354.092L240.438 344.416C242.078 340.48 243.718 334.412 243.718 334.412C243.718 334.412 245.44 340.48 247.08 344.416L251.098 354.092H236.42ZM307.028 352.616C313.916 349.5 317.77 344.006 317.77 335.314C317.77 321.702 308.422 314.24 292.842 314.24H277.426V370H288.906V356.142H292.842C293.908 356.142 295.056 356.06 296.122 355.896L305.306 370H318.59L307.028 352.616ZM288.906 346.138V324.326H292.514C301.698 324.326 305.962 327.442 305.962 335.314C305.962 343.186 301.862 346.138 292.514 346.138H288.906ZM327.795 370H344.933C362.153 370 374.289 358.602 374.289 342.12C374.289 325.638 362.071 314.24 344.933 314.24H327.795V370ZM339.275 359.914V324.326H344.359C356.741 324.326 362.399 331.706 362.399 342.12C362.399 352.534 356.741 359.914 344.359 359.914H339.275Z" fill="black"/>
</svg>
